<?xml version="1.0" encoding="UTF-8"?>
<svg version="1.1" xmlns="http://www.w3.org/2000/svg" width="512" height="512">
<path d="M0 0 C1.13964517 0.95689734 2.28033671 1.91254936 3.421875 2.8671875 C13.35462021 11.21588882 22.69438827 20.0034254 31 30 C31.41975098 30.50063965 31.83950195 31.0012793 32.27197266 31.51708984 C69.54623284 76.18137726 92.41109924 132.64053605 92.0625 191.125 C92.041875 196.03375 92.02125 200.9425 92 206 C77.15 206 62.3 206 47 206 C47 203.36 47 200.72 47 198 C42.05 198 37.1 198 32 198 C32 200.64 32 203.28 32 206 C-117.16 206 -266.32 206 -420 206 C-420 178.92570412 -418.57225193 155.65686747 -412 130 C-411.81211914 129.25588867 -411.62423828 128.51177734 -411.43066406 127.74511719 C-401.43438313 88.91820782 -380.27863119 53.1133002 -353 24 C-351.76439061 22.58894912 -350.53467183 21.17270557 -349.3125 19.75 C-343.66484696 13.28992355 -337.62129056 7.73967947 -330.921875 2.37109375 C-329.02898614 0.8350195 -327.1620431 -0.73382483 -325.328125 -2.33984375 C-288.50569565 -34.42944673 -238.34855278 -53.47554348 -190 -58 C-188.92878906 -58.11085937 -187.85757813 -58.22171875 -186.75390625 -58.3359375 C-120.05744854 -64.26095295 -50.91315266 -43.91631589 0 0 Z " fill="#000204" transform="translate(420,292)"/>
<path d="M0 0 C1.76014694 0.6809377 3.52041058 1.36158483 5.28232861 2.03792667 C8.7380029 3.37893831 12.16756618 4.78432848 15.6015625 6.1796875 C17.12471489 6.79482242 18.64802374 7.40957006 20.17147827 8.0239563 C24.18188259 9.64253676 28.19009787 11.26647023 32.19787598 12.89154053 C35.37443001 14.17866559 38.55236586 15.46235455 41.73045731 16.74567795 C44.08311194 17.69574892 46.43547438 18.64654029 48.78778076 19.59747314 C51.90756807 20.85860549 55.02816 22.11771957 58.14923096 23.37567139 C65.10085019 26.1812542 72.04273078 29.00442957 78.94923592 31.91962242 C81.8973335 33.16325425 84.85010626 34.3955646 87.80314255 35.6274147 C89.18333638 36.20734242 90.56103442 36.79325175 91.93596268 37.38555527 C93.82818247 38.2005458 95.72790589 38.99492992 97.63037109 39.78564453 C98.69645599 40.23924347 99.76254089 40.69284241 100.8609314 41.16018677 C106.0989265 42.56153798 110.81258054 41.20099603 115.88793945 39.64331055 C116.79795715 39.36686203 117.70797485 39.09041351 118.64556885 38.80558777 C119.62491394 38.50236099 120.60425903 38.19913422 121.61328125 37.88671875 C122.66811707 37.56476028 123.72295288 37.24280182 124.80975342 36.91108704 C127.10613295 36.2095148 129.40179125 35.50557849 131.69680786 34.79956055 C135.35879176 33.67326227 139.02272659 32.55353377 142.68725586 31.43554688 C147.96605658 29.82446092 153.24413042 28.21103305 158.52148438 26.59521484 C171.15218557 22.72833025 183.78449492 18.86676909 196.42202282 15.02224636 C200.82300514 13.68313147 205.22243812 12.33907724 209.62074852 10.9912138 C212.37846755 10.14726305 215.13749548 9.30765683 217.89688873 8.46919823 C219.79053891 7.89239778 221.68261945 7.31045199 223.574646 6.72834778 C232.0073246 4.17312019 239.26691608 2.68512492 248.125 3.1875 C248.89924316 3.23084473 249.67348633 3.27418945 250.47119141 3.31884766 C258.34192856 3.863009 265.95538319 5.37888634 273.671875 6.9609375 C278.10925704 7.85917317 282.54909592 8.53925123 287.03442383 9.14770508 C299.72410128 10.87338641 310.18512124 12.91798242 319 23 C325.06901686 32.05180072 325.91058572 42.37279842 325 53 C322.83347596 61.6325932 318.50916531 67.55687461 311.10452271 72.40359497 C304.12620518 75.99197948 296.30866069 77.55216895 288.74609375 79.49609375 C286.79299496 80.01156307 284.84032216 80.52864873 282.88804626 81.04722595 C278.7332171 82.14806593 274.57600838 83.2391958 270.41668701 84.32293701 C264.08444624 85.97438069 257.76040161 87.65561411 251.43798828 89.34423828 C242.65851152 91.68738164 233.87693174 94.02236638 225.09277344 96.34790039 C223.95717421 96.64854747 222.82157497 96.94919455 221.65156364 97.25895214 C219.31636188 97.87716988 216.98115741 98.49537737 214.64595032 99.11357498 C203.39454538 102.09303296 192.14460139 105.07800682 180.89453125 108.0625 C179.63282482 108.39717348 178.37111839 108.73184696 177.07117844 109.07666206 C151.45520923 115.87203119 125.8507772 122.71015264 100.25 129.5625 C92.03657094 131.76083763 83.82307212 133.95891414 75.609375 136.15625 C74.58617598 136.4299794 73.56297695 136.7037088 72.5087719 136.98573303 C55.26476861 141.59820586 38.01617567 146.19332951 20.765625 150.78125 C19.53939674 151.10738722 18.31316849 151.43352444 17.0497818 151.7695446 C5.10279415 154.94688955 -6.84452933 158.12296803 -18.79247665 161.29670238 C-23.16736336 162.45893652 -27.54209315 163.62176062 -31.91680145 164.78466606 C-34.02014094 165.3436061 -36.12355886 165.9022511 -38.22705841 166.46058846 C-48.89039822 169.29103482 -59.54797009 172.13929601 -70.1875 175.05810547 C-71.928913 175.5345052 -73.67032735 176.01089999 -75.41174316 176.48728943 C-78.60253226 177.36059163 -81.79085967 178.24218993 -84.97790527 179.12904358 C-86.38298106 179.51460861 -87.78812791 179.89991484 -89.19335938 180.28491211 C-90.39585327 180.61833115 -91.59834717 180.95175018 -92.83728027 181.29527283 C-95.74311594 181.94276029 -98.04892791 182.36223745 -101 182 C-102.99901624 179.92526345 -104.58800261 178.00752735 -106.25 175.6875 C-107.20853133 174.40672504 -108.1681839 173.12678852 -109.12890625 171.84765625 C-109.60602051 171.20328613 -110.08313477 170.55891602 -110.57470703 169.89501953 C-112.6996424 167.06978001 -114.93727011 164.35158187 -117.1875 161.625 C-117.92355469 160.73039063 -118.65960938 159.83578125 -119.41796875 158.9140625 C-119.94003906 158.28242188 -120.46210937 157.65078125 -121 157 C-119.35 155.02 -117.7 153.04 -116 151 C-118.31 148.03 -120.62 145.06 -123 142 C-124.98 142.99 -124.98 142.99 -127 144 C-127.99 144.33 -128.98 144.66 -130 145 C-135.24984766 139.31391858 -140.11374035 133.39296433 -144.86499023 127.29199219 C-148.35816931 122.80736758 -151.92289495 118.38958335 -155.53515625 114 C-158.64132487 110.21943344 -161.72753444 106.42287415 -164.8125 102.625 C-165.63983643 101.60720459 -165.63983643 101.60720459 -166.48388672 100.56884766 C-167.5229736 99.2897517 -168.5604963 98.00938292 -169.59619141 96.72753906 C-170.84579452 95.1897666 -172.1149351 93.66791715 -173.38671875 92.1484375 C-175 90 -175 90 -175 88 C-169.27344379 86.42372977 -163.54427901 84.85746479 -157.8125 83.30029297 C-155.86416472 82.76948819 -153.91656203 82.23598658 -151.96972656 81.69970703 C-149.16661131 80.92806295 -146.36097966 80.16624762 -143.5546875 79.40625 C-142.68883026 79.16563843 -141.82297302 78.92502686 -140.93087769 78.67712402 C-130.37804808 75.84431308 -130.37804808 75.84431308 -125.9362793 78.00292969 C-125.32179932 78.47118164 -124.70731934 78.93943359 -124.07421875 79.421875 C-123.3682959 79.94765137 -122.66237305 80.47342773 -121.93505859 81.01513672 C-121.19336426 81.5876416 -120.45166992 82.16014648 -119.6875 82.75 C-118.09003426 83.93515267 -116.49237304 85.12004188 -114.89453125 86.3046875 C-112.46742802 88.13068798 -110.04672994 89.96425569 -107.63427734 91.80957031 C-105.39454565 93.51670886 -103.13633328 95.19664102 -100.875 96.875 C-99.86505981 97.66922363 -99.86505981 97.66922363 -98.8347168 98.47949219 C-98.18543213 98.95805664 -97.53614746 99.43662109 -96.8671875 99.9296875 C-96.31144043 100.35491699 -95.75569336 100.78014648 -95.18310547 101.21826172 C-89.82693821 103.13622723 -82.96566162 100.55747333 -77.7578125 98.95874023 C-77.08364792 98.75376923 -76.40948334 98.54879822 -75.71488953 98.33761597 C-73.51630307 97.66749194 -71.32068806 96.98814795 -69.125 96.30859375 C-67.58961288 95.83862231 -66.05404672 95.36923546 -64.51831055 94.90040588 C-60.49870595 93.67159915 -56.48156617 92.4349213 -52.46490479 91.1965332 C-48.35698149 89.93155526 -44.24675345 88.67411284 -40.13671875 87.41601562 C-32.08888392 84.95133859 -24.04363986 82.47833316 -16 80 C-16.75343185 79.24689545 -17.50686371 78.49379089 -18.28312683 77.71786499 C-20.34786806 75.65237 -22.41050076 73.58490357 -24.4699707 71.51416016 C-27.98982443 67.97640058 -31.51281436 64.44178155 -35.03686523 60.90820312 C-36.54948836 59.39054928 -38.06121301 57.87199938 -39.57202148 56.35253906 C-41.77086528 54.14146481 -43.97301237 51.93372562 -46.17578125 49.7265625 C-46.84064041 49.05654205 -47.50549957 48.38652161 -48.19050598 47.69619751 C-52.06358183 43.82266737 -56.05303848 40.15421094 -60.19914246 36.57501221 C-62.46282157 34.59522083 -64.60039768 32.51283469 -66.71875 30.37890625 C-67.89824219 29.19458008 -67.89824219 29.19458008 -69.1015625 27.98632812 C-69.89304687 27.18646484 -70.68453125 26.38660156 -71.5 25.5625 C-72.32242188 24.73556641 -73.14484375 23.90863281 -73.9921875 23.05664062 C-75.99712113 21.04005041 -77.99966253 19.02114764 -80 17 C-76.82578881 14.8838592 -74.32880802 14.10259834 -70.66772461 13.07299805 C-69.71092804 12.80198524 -69.71092804 12.80198524 -68.73480225 12.52549744 C-66.62582189 11.93075868 -64.51448477 11.34512836 -62.40234375 10.76171875 C-61.31642032 10.46097411 -61.31642032 10.46097411 -60.20855904 10.15415382 C-56.37346953 9.09360583 -52.53628513 8.04101913 -48.69750977 6.99389648 C-44.74958823 5.91500858 -40.81070044 4.80630815 -36.87302303 3.69070721 C-33.82952805 2.8348316 -30.77987204 2.00277927 -27.72815132 1.17676735 C-26.27415475 0.77868457 -24.82257677 0.37164755 -23.37373161 -0.04479408 C-14.700099 -2.52831532 -8.42733394 -3.74398398 0 0 Z " fill="#010102" transform="translate(178,17)"/>
<path d="M0 0 C2.95234638 0.48118488 5.90795476 0.93618617 8.86474609 1.38916016 C10.77254666 1.69359663 12.68010853 1.99953358 14.58740234 2.30712891 C15.45634125 2.43960022 16.32528015 2.57207153 17.22055054 2.70855713 C24.10670357 3.86623987 30.89744638 5.63085771 36.00146484 10.60400391 C39.18795498 15.95730734 40.36502392 21.06701104 39.56396484 27.22900391 C37.95979298 31.39985074 36.1629725 34.55281873 32.56396484 37.22900391 C29.31705233 38.54456329 25.95374855 39.36128415 22.56396484 40.22900391 C21.18352381 40.59009464 19.803334 40.95214656 18.42333984 41.31494141 C16.04264431 41.94055538 13.66166055 42.56484628 11.27929688 43.18408203 C5.28245505 44.7499818 -0.67278673 46.43459907 -6.62353516 48.16650391 C-15.29266924 50.68342766 -24.01702179 52.90094904 -32.78344727 55.05126953 C-38.46511043 56.45507696 -44.08938022 57.9562592 -49.68603516 59.66650391 C-57.20274254 61.96181767 -64.80538084 63.85150102 -72.43603516 65.72900391 C-79.98349586 67.58609998 -87.50412369 69.44927646 -94.93603516 71.72900391 C-103.5859413 74.38234935 -112.36753501 76.48186507 -121.15087891 78.64306641 C-127.45904069 80.20482874 -133.72308507 81.82337116 -139.93603516 83.72900391 C-147.28655715 85.98185473 -154.72160857 87.83021521 -162.18603516 89.66650391 C-171.41693152 91.93743197 -180.57422495 94.3529829 -189.69580078 97.02734375 C-197.34137879 99.24965448 -205.05384493 101.15534761 -212.78564453 103.05175781 C-218.46656011 104.45548308 -224.0900538 105.95662071 -229.68603516 107.66650391 C-237.1212823 109.9351034 -244.63843764 111.80982715 -252.18603516 113.66650391 C-261.41990163 115.93815288 -270.57974022 118.35559565 -279.70458984 121.02954102 C-287.25197279 123.22247992 -294.86320125 125.10768898 -302.49560547 126.97924805 C-309.02005069 128.59146009 -315.48543057 130.34401916 -321.93603516 132.22900391 C-332.5060487 135.31611897 -343.16961928 137.98061592 -353.86425781 140.59814453 C-357.39117329 141.46330018 -360.9137261 142.34530033 -364.43603516 143.22900391 C-365.55751953 141.89095703 -365.55751953 141.89095703 -366.70166016 140.52587891 C-367.69635501 139.34350578 -368.69115208 138.16121865 -369.68603516 136.97900391 C-370.42273438 136.09921875 -370.42273438 136.09921875 -371.17431641 135.20166016 C-373.81100548 132.07278912 -376.48306736 129.06947769 -379.43603516 126.22900391 C-380.30228516 127.00244141 -380.30228516 127.00244141 -381.18603516 127.79150391 C-383.43603516 129.22900391 -383.43603516 129.22900391 -385.34228516 129.10400391 C-388.21959307 127.90154687 -389.35629732 126.1647998 -391.18603516 123.66650391 C-391.79962891 122.84021484 -392.41322266 122.01392578 -393.04541016 121.16259766 C-393.50431641 120.52451172 -393.96322266 119.88642578 -394.43603516 119.22900391 C-393.15541031 117.52150411 -391.81835959 115.85526794 -390.43603516 114.22900391 C-389.77603516 114.22900391 -389.11603516 114.22900391 -388.43603516 114.22900391 C-389.99660447 112.22747212 -391.55905903 110.22748055 -393.12353516 108.22900391 C-393.61104248 107.60614502 -394.0985498 106.98328613 -394.60083008 106.34155273 C-397.87145266 102.17851963 -401.19670392 98.06547422 -404.55761719 93.97509766 C-409.52320801 87.92978119 -414.36031444 81.92881879 -418.43603516 75.22900391 C-416.91942189 74.7163459 -415.39744069 74.21956068 -413.87353516 73.72900391 C-413.02662109 73.45056641 -412.17970703 73.17212891 -411.30712891 72.88525391 C-407.07569694 71.91806946 -403.47589669 71.16116711 -399.46606445 73.26025391 C-397.26009033 74.75415815 -395.16102962 76.3395224 -393.06103516 77.97900391 C-391.47272807 79.16421416 -389.88418024 80.34910186 -388.29541016 81.53369141 C-385.88361902 83.36235902 -383.47707861 85.19755084 -381.07470703 87.03857422 C-378.83384305 88.74621486 -376.57414287 90.426017 -374.31103516 92.10400391 C-373.63766113 92.63348633 -372.96428711 93.16296875 -372.27050781 93.70849609 C-368.94046797 96.16325368 -366.64551604 97.62769107 -362.43212891 97.18603516 C-361.09141066 96.90576834 -359.75829227 96.58637069 -358.43603516 96.22900391 C-357.17146484 95.90544922 -355.90689453 95.58189453 -354.60400391 95.24853516 C-353.27511619 94.85306456 -351.94834946 94.45041294 -350.62353516 94.04150391 C-349.89779297 93.82300781 -349.17205078 93.60451172 -348.42431641 93.37939453 C-342.0965454 91.46270622 -335.79587241 89.4583277 -329.49609375 87.4519043 C-323.95046167 85.69033086 -318.38777522 84.01885168 -312.79272461 82.42016602 C-308.3527215 81.13421898 -303.94832954 79.75738976 -299.55299377 78.32565308 C-296.64592143 77.37895197 -293.73552698 76.44264751 -290.82528687 75.5057373 C-289.36245524 75.0312046 -287.90134344 74.55133573 -286.44204712 74.06604004 C-284.37511914 73.37911793 -282.3029823 72.71068829 -280.22900391 72.04541016 C-279.01752686 71.64781494 -277.8060498 71.25021973 -276.55786133 70.84057617 C-273.43603516 70.22900391 -273.43603516 70.22900391 -271.1862793 70.95288086 C-268.41365405 72.97443368 -266.06348495 75.39543378 -263.68603516 77.85400391 C-263.17943359 78.36962891 -262.67283203 78.88525391 -262.15087891 79.41650391 C-260.90799614 80.68283729 -259.6713824 81.9553183 -258.43603516 83.22900391 C-261.63613904 85.04239611 -264.56887359 85.75114364 -268.18603516 86.35400391 C-269.17087891 86.52158203 -270.15572266 86.68916016 -271.17041016 86.86181641 C-271.91806641 86.98298828 -272.66572266 87.10416016 -273.43603516 87.22900391 C-272.7940308 89.37598593 -272.1473277 91.52156344 -271.49853516 93.66650391 C-270.9590625 95.45894531 -270.9590625 95.45894531 -270.40869141 97.28759766 C-269.72714373 100.08767936 -269.72714373 100.08767936 -268.43603516 101.22900391 C-266.59414123 100.88905319 -264.76800498 100.46354695 -262.95166016 100.00634766 C-261.79923828 99.71808105 -260.64681641 99.42981445 -259.45947266 99.1328125 C-258.21423828 98.81393066 -256.96900391 98.49504883 -255.68603516 98.16650391 C-254.41501953 97.84504395 -253.14400391 97.52358398 -251.83447266 97.19238281 C-243.47495693 95.06660073 -235.1690786 92.78026488 -226.89013672 90.35961914 C-220.28115443 88.43680794 -213.63067381 86.7529989 -206.94482422 85.12084961 C-200.98120122 83.65096721 -195.0819775 82.01152318 -189.18603516 80.29150391 C-181.64208473 78.09259459 -174.06769443 76.10041311 -166.43603516 74.22900391 C-158.86914787 72.3721992 -151.35505462 70.40494351 -143.87353516 68.22900391 C-132.78422569 65.00484112 -121.62442711 62.08785539 -110.43603516 59.22900391 C-109.4752002 58.9819873 -108.51436523 58.7349707 -107.52441406 58.48046875 C-104.746073 57.76716817 -101.96638175 57.05944223 -99.18603516 56.35400391 C-97.92617798 56.0309729 -97.92617798 56.0309729 -96.64086914 55.70141602 C-93.50339626 54.91272059 -90.68474697 54.22900391 -87.43603516 54.22900391 C-87.76087891 53.23320313 -87.76087891 53.23320313 -88.09228516 52.21728516 C-88.50994141 50.89277344 -88.50994141 50.89277344 -88.93603516 49.54150391 C-89.35369141 48.23632812 -89.35369141 48.23632812 -89.77978516 46.90478516 C-90.43454321 44.23508714 -90.5543501 41.96503707 -90.43603516 39.22900391 C-91.61939453 39.62474609 -92.80275391 40.02048828 -94.02197266 40.42822266 C-95.6178748 40.92576862 -97.21425573 41.42178065 -98.81103516 41.91650391 C-99.973125 42.31192383 -99.973125 42.31192383 -101.15869141 42.71533203 C-107.77718839 44.71182079 -112.10297446 43.73515069 -118.43603516 41.22900391 C-119.37125 40.87652588 -120.30646484 40.52404785 -121.27001953 40.16088867 C-124.19677781 39.0349677 -127.09828308 37.8588946 -129.99853516 36.66650391 C-130.99433594 36.26753906 -131.99013672 35.86857422 -133.01611328 35.45751953 C-133.96035156 35.07144531 -134.90458984 34.68537109 -135.87744141 34.28759766 C-137.15663452 33.76637329 -137.15663452 33.76637329 -138.46166992 33.23461914 C-140.43603516 32.22900391 -140.43603516 32.22900391 -141.43603516 30.22900391 C-117.0653587 22.34636075 -117.0653587 22.34636075 -105.33203125 18.95068359 C-100.74363169 17.62119845 -96.17934146 16.22860071 -91.62353516 14.79150391 C-85.57642125 12.88430823 -79.51201629 11.04210069 -73.43603516 9.22900391 C-67.27833611 7.39061329 -61.13094022 5.52509729 -54.99853516 3.60400391 C-54.02122437 3.30200073 -54.02122437 3.30200073 -53.02416992 2.99389648 C-50.02063926 2.06208168 -47.04569004 1.08933497 -44.08447266 0.02978516 C-29.42144146 -5.05411252 -14.94154977 -2.4489833 0 0 Z " fill="#FCFCFC" transform="translate(448.43603515625,38.77099609375)"/>
<path d="M0 0 C0.91967773 2.4831543 0.91967773 2.4831543 1.68359375 5.82421875 C1.96960449 7.0663916 2.25561523 8.30856445 2.55029297 9.58837891 C2.84736793 10.95446205 3.14306986 12.32084439 3.4375 13.6875 C3.66569427 14.7186795 3.66569427 14.7186795 3.89849854 15.77069092 C7.19600411 30.7225839 9.40904782 45.77102717 11 61 C11.10602539 61.98323242 11.21205078 62.96646484 11.32128906 63.97949219 C12.3210633 74.72619431 12 85.07092108 12 96 C-28.92 96 -69.84 96 -112 96 C-112 69.27 -112 42.54 -112 15 C-105.833125 14.62875 -99.66625 14.2575 -93.3125 13.875 C-65.74123917 12.0068211 -38.84347806 7.85587536 -12.04589844 1.09667969 C-10.89379883 0.80825195 -9.74169922 0.51982422 -8.5546875 0.22265625 C-7.54905762 -0.03765381 -6.54342773 -0.29796387 -5.50732422 -0.56616211 C-3 -1 -3 -1 0 0 Z " fill="#3FA1FE" transform="translate(376,386)"/>
<path d="M0 0 C18.41656482 3.79504526 18.41656482 3.79504526 24.8125 5.5 C40.78011948 9.50815414 56.89525204 11.55773836 73.25 13.1875 C74.09195923 13.27208466 74.93391846 13.35666931 75.8013916 13.44381714 C78.28894082 13.69106479 80.77706719 13.93110286 83.265625 14.16796875 C83.9779126 14.23759827 84.6902002 14.30722778 85.42407227 14.37896729 C93.94391026 15.16472961 102.43973835 15.52442991 111 16 C111 42.73 111 69.46 111 97 C70.08 97 29.16 97 -13 97 C-13 83.53333999 -12.99026464 70.66228853 -11.5 57.375 C-11.41785248 56.61126068 -11.33570496 55.84752136 -11.25106812 55.06063843 C-6.68375712 13.36751424 -6.68375712 13.36751424 0 0 Z " fill="#3FA1FE" transform="translate(137,385)"/>
<path d="M0 0 C1.25170898 1.55273438 1.25170898 1.55273438 2.49609375 3.59375 C2.96644043 4.36428711 3.43678711 5.13482422 3.92138672 5.92871094 C4.67186279 7.20149902 4.67186279 7.20149902 5.4375 8.5 C5.96102051 9.38204102 6.48454102 10.26408203 7.02392578 11.17285156 C24.40726902 41.04252938 36.34310193 73.52892902 40.125 108 C40.21136719 108.71671875 40.29773438 109.4334375 40.38671875 110.171875 C41.06201457 116.21738046 41 121.81231885 41 128 C31.1 128 21.2 128 11 128 C11 130.64 11 133.28 11 136 C6.05 136 1.1 136 -4 136 C-4 133.36 -4 130.72 -4 128 C-20.17 128 -36.34 128 -53 128 C-53.2475 122.67875 -53.495 117.3575 -53.75 111.875 C-55.04525196 87.44929813 -58.2803508 63.71270473 -63.73046875 39.8515625 C-64.77310135 35.23619525 -65.52478633 30.70633297 -66 26 C-61.06515873 24.00131727 -56.12452093 22.02859435 -51.1328125 20.17578125 C-35.41066529 14.33821921 -19.97190114 7.90154754 -5.21484375 -0.1015625 C-3 -1 -3 -1 0 0 Z " fill="#3FA1FD" transform="translate(456,354)"/>
<path d="M0 0 C3.92446971 1.23883443 7.56704354 2.66352896 11.24609375 4.50390625 C12.23722168 4.99310547 13.22834961 5.48230469 14.24951172 5.98632812 C15.30154785 6.50646484 16.35358398 7.02660156 17.4375 7.5625 C32.90941799 15.10622593 48.82638221 21.15682893 65 27 C64.60351357 32.55081008 63.62799419 37.62215503 62.1875 43 C58.03230811 58.90567028 56.05856019 75.3062626 54.3125 91.625 C54.19318115 92.71772217 54.0738623 93.81044434 53.95092773 94.9362793 C52.80585153 106.30672866 52.49902248 117.52248288 52 129 C20.98 129 -10.04 129 -42 129 C-42 83.259152 -26.2064669 37.33323497 0 0 Z " fill="#3FA1FE" transform="translate(57,353)"/>
<path d="M0 0 C0 44.88 0 89.76 0 136 C-21.04626379 136 -21.04626379 136 -28.875 135.25 C-29.82366943 135.16129639 -30.77233887 135.07259277 -31.74975586 134.98120117 C-54.64146191 132.72515867 -76.72018142 128.58075611 -99 123 C-99.86818359 122.78375977 -100.73636719 122.56751953 -101.63085938 122.34472656 C-103.4210411 121.89835785 -105.21061971 121.44957067 -107 121 C-99.26913983 85.88901008 -78.57409877 50.90109617 -53 26 C-52.56171875 25.505 -52.1234375 25.01 -51.671875 24.5 C-38.94523767 10.61639564 -18.83059849 0 0 0 Z " fill="#3FA1FD" transform="translate(248,250)"/>
<path d="M0 0 C5.57522418 0 9.49528005 0.4014719 14.625 2.0625 C15.66769043 2.39749512 15.66769043 2.39749512 16.73144531 2.73925781 C47.84769231 13.19670708 69.40517047 40.40645685 85 68 C85.36303223 68.63035156 85.72606445 69.26070313 86.10009766 69.91015625 C91.26781099 78.93712794 95.49089936 88.22705067 99.375 97.875 C99.79193115 98.90866699 100.2088623 99.94233398 100.63842773 101.00732422 C103.21881352 107.57376161 105.29334311 114.15480349 107 121 C82.37422936 127.74371706 57.35691107 132.46550273 31.9375 134.875 C30.68582031 134.99512451 29.43414062 135.11524902 28.14453125 135.23901367 C18.67101153 136.05173003 9.59368487 136 0 136 C0 91.12 0 46.24 0 0 Z " fill="#3FA1FE" transform="translate(264,250)"/>
<path d="M0 0 C1.26456008 0.50861003 2.52939954 1.01652589 3.79449463 1.52380371 C7.22014748 2.89967269 10.64186186 4.28509605 14.06292725 5.67232513 C17.65822899 7.12835057 21.25701956 8.57570081 24.85546875 10.02392578 C30.92307901 12.46710179 36.98852943 14.91557247 43.05273438 17.3671875 C51.69928273 20.86231781 60.35185344 24.34235139 69.00598907 27.81864548 C75.08627787 30.26132756 81.16567326 32.70623298 87.24507141 35.15113068 C88.71609749 35.74267921 90.18715662 36.3341456 91.6582489 36.92552948 C95.86060222 38.61494007 100.06230493 40.30594888 104.26299286 41.99949646 C106.13438648 42.75355262 108.00642078 43.50601816 109.878479 44.25842285 C116.12486427 46.77882593 122.32480863 49.36781906 128.453125 52.1640625 C125.35398098 54.23015851 123.22350346 54.85591253 119.6328125 55.71484375 C118.46685547 55.9984375 117.30089844 56.28203125 116.09960938 56.57421875 C114.85501953 56.87199219 113.61042969 57.16976562 112.328125 57.4765625 C100.57737539 60.33807795 100.57737539 60.33807795 88.953125 63.6640625 C80.28912295 66.32545135 71.4925454 68.44605873 62.68554688 70.578125 C53.25090968 72.88448884 43.86270429 75.35162935 34.84375 78.9921875 C30.41272675 80.63216338 26.20079118 81.83818375 21.453125 81.1640625 C15.51319754 78.29471588 11.27449577 72.80618505 6.98046875 67.95214844 C2.52651722 63.03868955 -2.22909222 58.42424909 -6.94113159 53.76010132 C-8.57553059 52.13521003 -10.19892183 50.50014697 -11.81860352 48.8605957 C-17.92905452 42.65697796 -17.92905452 42.65697796 -24.38671875 36.8203125 C-30.97667144 31.19648862 -36.94598262 24.86828155 -43.046875 18.7265625 C-44.35914085 17.40927191 -45.67163895 16.09221264 -46.984375 14.77539062 C-50.17456006 11.5742764 -53.36158151 8.37004385 -56.546875 5.1640625 C-48.92802416 0.0848286 -38.49136873 -1.44702661 -29.671875 -3.6484375 C-28.78064941 -3.87958252 -27.88942383 -4.11072754 -26.97119141 -4.34887695 C-26.11187012 -4.55730225 -25.25254883 -4.76572754 -24.3671875 -4.98046875 C-23.60680176 -5.16971924 -22.84641602 -5.35896973 -22.06298828 -5.55395508 C-14.11053443 -6.44519166 -7.20959514 -2.93701781 0 0 Z " fill="#6185A5" transform="translate(185.546875,36.8359375)"/>
<path d="M0 0 C-0.99966797 0.76570313 -0.99966797 0.76570313 -2.01953125 1.546875 C-35.06493994 27.61346311 -53.95165937 69.04038079 -67 108 C-87.1322119 102.18467588 -109.52159947 94.65226702 -127 83 C-125.4186938 79.26077871 -123.06769602 76.70350263 -120.3125 73.75 C-117.34554425 70.55530577 -114.42351803 67.34440179 -111.625 64 C-92.77368483 42.43058822 -29.97010174 -9.99003391 0 0 Z " fill="#3FA0FD" transform="translate(194,258)"/>
<path d="M0 0 C36.70264944 9.03693744 70.04453455 27.74710632 98 53 C98.61037109 53.54865723 99.22074219 54.09731445 99.84960938 54.66259766 C112.2197165 65.82453629 112.2197165 65.82453629 117.46484375 72.15625 C118.60398874 73.52438342 119.79196087 74.85216842 121.00390625 76.15625 C121.66261719 76.8678125 122.32132812 77.579375 123 78.3125 C123.8971875 79.26576172 123.8971875 79.26576172 124.8125 80.23828125 C125.204375 80.81964844 125.59625 81.40101563 126 82 C125 85 125 85 122.74462891 86.37524414 C121.74866699 86.84051514 120.75270508 87.30578613 119.7265625 87.78515625 C118.04240234 88.5745459 118.04240234 88.5745459 116.32421875 89.37988281 C115.09159679 89.94174558 113.85851237 90.50259474 112.625 91.0625 C112.0067334 91.34702026 111.3884668 91.63154053 110.75146484 91.92468262 C81.2827675 105.46563632 81.2827675 105.46563632 66 109 C65.79955078 108.42781738 65.59910156 107.85563477 65.39257812 107.26611328 C56.19078631 81.13698903 45.34038699 55.55077236 29 33 C28.59426758 32.43877441 28.18853516 31.87754883 27.77050781 31.29931641 C20.0280498 20.69871866 11.52376623 10.57568721 1.36328125 2.20703125 C0.91339844 1.80871094 0.46351563 1.41039062 0 1 C0 0.67 0 0.34 0 0 Z " fill="#3FA0FC" transform="translate(319,257)"/>
<path d="M0 0 C3.47988948 1.13453931 6.77259982 2.26216913 10 4 C9.43421838 8.70586613 7.31384952 12.25160409 4.9375 16.25 C-13.75737423 48.74107161 -23.12380261 83.79812149 -25.72216797 121.046875 C-26 124 -26 124 -27 129 C-31.95 129 -36.9 129 -42 129 C-42.66500625 83.5579062 -25.94697018 36.96356087 0 0 Z " fill="#0067F4" transform="translate(57,353)"/>
<path d="M0 0 C1.38828039 1.62322015 2.77433468 3.24839431 4.14941406 4.8828125 C7.69695006 8.94141833 11.55598072 12.69899497 15.375 16.5 C16.18710938 17.31597656 16.99921875 18.13195312 17.8359375 18.97265625 C21.35427978 22.48536016 24.86961516 25.94193697 28.6640625 29.15625 C36.20659835 35.64226585 43.02517198 42.97462946 50.01855469 50.0390625 C60.18130168 60.37015571 60.18130168 60.37015571 71 70 C73.35469442 71.97837599 75.68515366 73.97450945 78 76 C78 76.33 78 76.66 78 77 C72.19729056 79.49754044 66.40832065 81.66472664 60 81 C54.03446757 78.24551373 49.79772712 72.61539538 45.52734375 67.78808594 C41.07339222 62.87462705 36.31778278 58.26018659 31.60574341 53.59603882 C29.97134441 51.97114753 28.34795317 50.33608447 26.72827148 48.6965332 C20.61782048 42.49291546 20.61782048 42.49291546 14.16015625 36.65625 C7.57020356 31.03242612 1.60089238 24.70421905 -4.5 18.5625 C-5.81226585 17.24520941 -7.12476395 15.92815014 -8.4375 14.61132812 C-11.62768506 11.4102139 -14.81470651 8.20598135 -18 5 C-14.81886649 2.87924433 -12.07995044 1.93982824 -8.4375 0.8125 C-7.28121094 0.44769531 -6.12492188 0.08289062 -4.93359375 -0.29296875 C-2 -1 -2 -1 0 0 Z " fill="#445F77" transform="translate(147,37)"/>
<path d="M0 0 C2.33502869 1.76704874 3.62403142 3.20064338 4.8671875 5.84375 C6.23650431 8.45017372 7.9218802 10.49107765 9.8125 12.75 C10.61558594 13.71808594 11.41867188 14.68617187 12.24609375 15.68359375 C12.68679199 16.2132373 13.12749023 16.74288086 13.58154297 17.28857422 C16.19926621 20.44696318 18.78707686 23.6296827 21.375 26.8125 C21.93171387 27.49675049 22.48842773 28.18100098 23.06201172 28.88598633 C26.56532876 33.20241015 30.01919008 37.55357296 33.4375 41.9375 C39.79541298 50.09120484 46.39784638 58.04374452 53 66 C49.63266526 67.75990891 46.45380989 68.73930633 42.75 69.625 C41.13351563 70.01558594 41.13351563 70.01558594 39.484375 70.4140625 C38.66453125 70.60742188 37.8446875 70.80078125 37 71 C35.87851563 69.66195312 35.87851563 69.66195312 34.734375 68.296875 C33.73968015 67.11450188 32.74488308 65.93221475 31.75 64.75 C31.25886719 64.16347656 30.76773438 63.57695312 30.26171875 62.97265625 C27.62502968 59.84378521 24.9529678 56.84047379 22 54 C21.13375 54.7734375 21.13375 54.7734375 20.25 55.5625 C18 57 18 57 16.09375 56.875 C13.21644209 55.67254296 12.07973783 53.93579589 10.25 51.4375 C9.63640625 50.61121094 9.0228125 49.78492188 8.390625 48.93359375 C7.93171875 48.29550781 7.4728125 47.65742188 7 47 C8.28062485 45.2925002 9.61767557 43.62626404 11 42 C11.66 42 12.32 42 13 42 C11.43943068 39.99846821 9.87697613 37.99847665 8.3125 36 C7.82499268 35.37714111 7.33748535 34.75428223 6.83520508 34.11254883 C3.56458249 29.94951572 0.23933123 25.83647032 -3.12158203 21.74609375 C-8.08717286 15.70077728 -12.92427928 9.69981488 -17 3 C-5.74543312 -0.80436064 -5.74543312 -0.80436064 0 0 Z " fill="#AAE3F9" transform="translate(47,111)"/>
<path d="M0 0 C-1.34578125 0.60134766 -1.34578125 0.60134766 -2.71875 1.21484375 C-26.6467651 12.05317055 -48.44990112 26.14374 -67.78125 43.96875 C-69.77015799 45.78958125 -71.80682976 47.52087406 -73.875 49.25 C-84.33010657 58.42446099 -92.76286012 69.27205871 -100.86181641 80.51049805 C-102 82 -102 82 -104 84 C-106.97 82.35 -109.94 80.7 -113 79 C-111.07545658 75.15091317 -109.21988495 72.86664543 -106.3125 69.75 C-103.34554425 66.55530577 -100.42351803 63.34440179 -97.625 60 C-83.59173575 43.94333486 -21.34808637 -10.67404318 0 0 Z " fill="#0167F1" transform="translate(180,262)"/>
<path d="M0 0 C4.95 0 9.9 0 15 0 C15 4.95 15 9.9 15 15 C10.05 15 5.1 15 0 15 C0 10.05 0 5.1 0 0 Z " fill="#F8F9FB" transform="translate(226,79)"/>
<path d="M0 0 C4.95 0 9.9 0 15 0 C15 4.95 15 9.9 15 15 C10.05 15 5.1 15 0 15 C0 10.05 0 5.1 0 0 Z " fill="#F8F9FB" transform="translate(196,64)"/>
</svg>
